0
SECTION
2
HEADER
0
ENDSEC
0
SECTION
2
ENTITIES
0
LINE
8
FRAME
10
0
20
0
11
27500
21
0
0
LINE
8
FRAME
10
27500
20
0
11
27500
21
35000
0
LINE
8
FRAME
10
27500
20
35000
11
0
21
35000
0
LINE
8
FRAME
10
0
20
35000
11
0
21
0
0
LINE
8
FRAME
10
500
20
500
11
27000
21
500
0
LINE
8
FRAME
10
27000
20
500
11
27000
21
34500
0
LINE
8
FRAME
10
27000
20
34500
11
500
21
34500
0
LINE
8
FRAME
10
500
20
34500
11
500
21
500
0
TEXT
8
TEXT
10
1400
20
33300
40
250
1
????????? ???????????? ????????? ???????
0
LINE
8
PANEL
10
1300
20
15200
11
13300
21
15200
0
LINE
8
PANEL
10
13300
20
15200
11
13300
21
32000
0
LINE
8
PANEL
10
13300
20
32000
11
1300
21
32000
0
LINE
8
PANEL
10
1300
20
32000
11
1300
21
15200
0
LINE
8
PANEL
10
1300
20
31100
11
13300
21
31100
0
LINE
8
PANEL
10
1300
20
30200
11
13300
21
30200
0
LINE
8
PANEL
10
2200
20
31100
11
2200
21
15200
0
LINE
8
PANEL
10
6500
20
31100
11
6500
21
15200
0
LINE
8
PANEL
10
9300
20
31100
11
9300
21
15200
0
LINE
8
PANEL
10
11700
20
31100
11
11700
21
15200
0
TEXT
8
TEXT
10
5860
20
31400
40
180
1
????????? ?????????
0
TEXT
8
TEXT
10
1550
20
30550
40
180
1
?
0
TEXT
8
TEXT
10
3100
20
30550
40
180
1
????
0
TEXT
8
TEXT
10
7000
20
30550
40
180
1
????? ??????
0
TEXT
8
TEXT
10
9650
20
30550
40
180
1
????? ?????????
0
LINE
8
PANEL
10
1300
20
25200
11
13300
21
25200
0
TEXT
8
TEXT
10
1420
20
27700
40
170
1
1-?
0
LINE
8
DEVICE
10
2450
20
29220
11
2850
21
29220
0
LINE
8
DEVICE
10
2850
20
29220
11
2850
21
29580
0
LINE
8
DEVICE
10
2850
20
29580
11
2450
21
29580
0
LINE
8
DEVICE
10
2450
20
29580
11
2450
21
29220
0
LINE
8
DEVICE
10
2900
20
29400
11
6030
21
29400
0
CIRCLE
8
DEVICE
10
6090
20
29400
40
60
0
TEXT
8
TEXT
10
2950
20
29580
40
120
1
LAN-3
0
LINE
8
DEVICE
10
2450
20
28320
11
2850
21
28320
0
LINE
8
DEVICE
10
2850
20
28320
11
2850
21
28680
0
LINE
8
DEVICE
10
2850
20
28680
11
2450
21
28680
0
LINE
8
DEVICE
10
2450
20
28680
11
2450
21
28320
0
LINE
8
DEVICE
10
2900
20
28500
11
6030
21
28500
0
CIRCLE
8
DEVICE
10
6090
20
28500
40
60
0
TEXT
8
TEXT
10
2950
20
28680
40
120
1
LAN-3
0
LINE
8
DEVICE
10
2450
20
27420
11
2850
21
27420
0
LINE
8
DEVICE
10
2850
20
27420
11
2850
21
27780
0
LINE
8
DEVICE
10
2850
20
27780
11
2450
21
27780
0
LINE
8
DEVICE
10
2450
20
27780
11
2450
21
27420
0
LINE
8
DEVICE
10
2900
20
27600
11
6030
21
27600
0
CIRCLE
8
DEVICE
10
6090
20
27600
40
60
0
TEXT
8
TEXT
10
2950
20
27780
40
120
1
LAN-3
0
LINE
8
DEVICE
10
6800
20
29180
11
7500
21
29180
0
LINE
8
DEVICE
10
7500
20
29180
11
7500
21
29620
0
LINE
8
DEVICE
10
7500
20
29620
11
6800
21
29620
0
LINE
8
DEVICE
10
6800
20
29620
11
6800
21
29180
0
TEXT
8
TEXT
10
7020
20
29420
40
130
1
ONT
0
LINE
8
DEVICE
10
7500
20
29400
11
12000
21
29400
0
TEXT
8
TEXT
10
6540
20
29540
40
120
1
A-1,1
0
LINE
8
DEVICE
10
6800
20
28280
11
7500
21
28280
0
LINE
8
DEVICE
10
7500
20
28280
11
7500
21
28720
0
LINE
8
DEVICE
10
7500
20
28720
11
6800
21
28720
0
LINE
8
DEVICE
10
6800
20
28720
11
6800
21
28280
0
TEXT
8
TEXT
10
7020
20
28520
40
130
1
ONT
0
LINE
8
DEVICE
10
7500
20
28500
11
12000
21
28500
0
TEXT
8
TEXT
10
6540
20
28640
40
120
1
A-1,2
0
LINE
8
DEVICE
10
6800
20
27380
11
7500
21
27380
0
LINE
8
DEVICE
10
7500
20
27380
11
7500
21
27820
0
LINE
8
DEVICE
10
7500
20
27820
11
6800
21
27820
0
LINE
8
DEVICE
10
6800
20
27820
11
6800
21
27380
0
TEXT
8
TEXT
10
7020
20
27620
40
130
1
ONT
0
LINE
8
DEVICE
10
7500
20
27600
11
12000
21
27600
0
TEXT
8
TEXT
10
6540
20
27740
40
120
1
A-1,3
0
TEXT
8
TEXT
10
11800
20
27700
40
160
1
K-1
0
LINE
8
PANEL
10
1300
20
20200
11
13300
21
20200
0
TEXT
8
TEXT
10
1420
20
22700
40
170
1
2-?
0
LINE
8
DEVICE
10
2450
20
24220
11
2850
21
24220
0
LINE
8
DEVICE
10
2850
20
24220
11
2850
21
24580
0
LINE
8
DEVICE
10
2850
20
24580
11
2450
21
24580
0
LINE
8
DEVICE
10
2450
20
24580
11
2450
21
24220
0
LINE
8
DEVICE
10
2900
20
24400
11
6030
21
24400
0
CIRCLE
8
DEVICE
10
6090
20
24400
40
60
0
TEXT
8
TEXT
10
2950
20
24580
40
120
1
LAN-3
0
LINE
8
DEVICE
10
2450
20
23320
11
2850
21
23320
0
LINE
8
DEVICE
10
2850
20
23320
11
2850
21
23680
0
LINE
8
DEVICE
10
2850
20
23680
11
2450
21
23680
0
LINE
8
DEVICE
10
2450
20
23680
11
2450
21
23320
0
LINE
8
DEVICE
10
2900
20
23500
11
6030
21
23500
0
CIRCLE
8
DEVICE
10
6090
20
23500
40
60
0
TEXT
8
TEXT
10
2950
20
23680
40
120
1
LAN-3
0
LINE
8
DEVICE
10
2450
20
22420
11
2850
21
22420
0
LINE
8
DEVICE
10
2850
20
22420
11
2850
21
22780
0
LINE
8
DEVICE
10
2850
20
22780
11
2450
21
22780
0
LINE
8
DEVICE
10
2450
20
22780
11
2450
21
22420
0
LINE
8
DEVICE
10
2900
20
22600
11
6030
21
22600
0
CIRCLE
8
DEVICE
10
6090
20
22600
40
60
0
TEXT
8
TEXT
10
2950
20
22780
40
120
1
LAN-3
0
LINE
8
DEVICE
10
6800
20
24180
11
7500
21
24180
0
LINE
8
DEVICE
10
7500
20
24180
11
7500
21
24620
0
LINE
8
DEVICE
10
7500
20
24620
11
6800
21
24620
0
LINE
8
DEVICE
10
6800
20
24620
11
6800
21
24180
0
TEXT
8
TEXT
10
7020
20
24420
40
130
1
ONT
0
LINE
8
DEVICE
10
7500
20
24400
11
12000
21
24400
0
TEXT
8
TEXT
10
6540
20
24540
40
120
1
A-2,1
0
LINE
8
DEVICE
10
6800
20
23280
11
7500
21
23280
0
LINE
8
DEVICE
10
7500
20
23280
11
7500
21
23720
0
LINE
8
DEVICE
10
7500
20
23720
11
6800
21
23720
0
LINE
8
DEVICE
10
6800
20
23720
11
6800
21
23280
0
TEXT
8
TEXT
10
7020
20
23520
40
130
1
ONT
0
LINE
8
DEVICE
10
7500
20
23500
11
12000
21
23500
0
TEXT
8
TEXT
10
6540
20
23640
40
120
1
A-2,2
0
LINE
8
DEVICE
10
6800
20
22380
11
7500
21
22380
0
LINE
8
DEVICE
10
7500
20
22380
11
7500
21
22820
0
LINE
8
DEVICE
10
7500
20
22820
11
6800
21
22820
0
LINE
8
DEVICE
10
6800
20
22820
11
6800
21
22380
0
TEXT
8
TEXT
10
7020
20
22620
40
130
1
ONT
0
LINE
8
DEVICE
10
7500
20
22600
11
12000
21
22600
0
TEXT
8
TEXT
10
6540
20
22740
40
120
1
A-2,3
0
TEXT
8
TEXT
10
11800
20
22700
40
160
1
K-2
0
LINE
8
PANEL
10
1300
20
15200
11
13300
21
15200
0
TEXT
8
TEXT
10
1420
20
17700
40
170
1
3-?
0
LINE
8
DEVICE
10
2450
20
19220
11
2850
21
19220
0
LINE
8
DEVICE
10
2850
20
19220
11
2850
21
19580
0
LINE
8
DEVICE
10
2850
20
19580
11
2450
21
19580
0
LINE
8
DEVICE
10
2450
20
19580
11
2450
21
19220
0
LINE
8
DEVICE
10
2900
20
19400
11
6030
21
19400
0
CIRCLE
8
DEVICE
10
6090
20
19400
40
60
0
TEXT
8
TEXT
10
2950
20
19580
40
120
1
LAN-3
0
LINE
8
DEVICE
10
2450
20
18320
11
2850
21
18320
0
LINE
8
DEVICE
10
2850
20
18320
11
2850
21
18680
0
LINE
8
DEVICE
10
2850
20
18680
11
2450
21
18680
0
LINE
8
DEVICE
10
2450
20
18680
11
2450
21
18320
0
LINE
8
DEVICE
10
2900
20
18500
11
6030
21
18500
0
CIRCLE
8
DEVICE
10
6090
20
18500
40
60
0
TEXT
8
TEXT
10
2950
20
18680
40
120
1
LAN-3
0
LINE
8
DEVICE
10
2450
20
17420
11
2850
21
17420
0
LINE
8
DEVICE
10
2850
20
17420
11
2850
21
17780
0
LINE
8
DEVICE
10
2850
20
17780
11
2450
21
17780
0
LINE
8
DEVICE
10
2450
20
17780
11
2450
21
17420
0
LINE
8
DEVICE
10
2900
20
17600
11
6030
21
17600
0
CIRCLE
8
DEVICE
10
6090
20
17600
40
60
0
TEXT
8
TEXT
10
2950
20
17780
40
120
1
LAN-3
0
LINE
8
DEVICE
10
6800
20
19180
11
7500
21
19180
0
LINE
8
DEVICE
10
7500
20
19180
11
7500
21
19620
0
LINE
8
DEVICE
10
7500
20
19620
11
6800
21
19620
0
LINE
8
DEVICE
10
6800
20
19620
11
6800
21
19180
0
TEXT
8
TEXT
10
7020
20
19420
40
130
1
ONT
0
LINE
8
DEVICE
10
7500
20
19400
11
12000
21
19400
0
TEXT
8
TEXT
10
6540
20
19540
40
120
1
A-3,1
0
LINE
8
DEVICE
10
6800
20
18280
11
7500
21
18280
0
LINE
8
DEVICE
10
7500
20
18280
11
7500
21
18720
0
LINE
8
DEVICE
10
7500
20
18720
11
6800
21
18720
0
LINE
8
DEVICE
10
6800
20
18720
11
6800
21
18280
0
TEXT
8
TEXT
10
7020
20
18520
40
130
1
ONT
0
LINE
8
DEVICE
10
7500
20
18500
11
12000
21
18500
0
TEXT
8
TEXT
10
6540
20
18640
40
120
1
A-3,2
0
LINE
8
DEVICE
10
6800
20
17380
11
7500
21
17380
0
LINE
8
DEVICE
10
7500
20
17380
11
7500
21
17820
0
LINE
8
DEVICE
10
7500
20
17820
11
6800
21
17820
0
LINE
8
DEVICE
10
6800
20
17820
11
6800
21
17380
0
TEXT
8
TEXT
10
7020
20
17620
40
130
1
ONT
0
LINE
8
DEVICE
10
7500
20
17600
11
12000
21
17600
0
TEXT
8
TEXT
10
6540
20
17740
40
120
1
A-3,3
0
TEXT
8
TEXT
10
11800
20
17700
40
160
1
K-3
0
LINE
8
PANEL
10
14500
20
20200
11
26500
21
20200
0
LINE
8
PANEL
10
26500
20
20200
11
26500
21
32000
0
LINE
8
PANEL
10
26500
20
32000
11
14500
21
32000
0
LINE
8
PANEL
10
14500
20
32000
11
14500
21
20200
0
LINE
8
PANEL
10
14500
20
31100
11
26500
21
31100
0
LINE
8
PANEL
10
14500
20
30200
11
26500
21
30200
0
LINE
8
PANEL
10
15400
20
31100
11
15400
21
20200
0
LINE
8
PANEL
10
19700
20
31100
11
19700
21
20200
0
LINE
8
PANEL
10
22500
20
31100
11
22500
21
20200
0
LINE
8
PANEL
10
24900
20
31100
11
24900
21
20200
0
TEXT
8
TEXT
10
19060
20
31400
40
180
1
????????? ?????????
0
TEXT
8
TEXT
10
14750
20
30550
40
180
1
?
0
TEXT
8
TEXT
10
16300
20
30550
40
180
1
????
0
TEXT
8
TEXT
10
20200
20
30550
40
180
1
????? ??????
0
TEXT
8
TEXT
10
22850
20
30550
40
180
1
????? ?????????
0
LINE
8
PANEL
10
14500
20
25200
11
26500
21
25200
0
TEXT
8
TEXT
10
14620
20
27700
40
170
1
4-?
0
LINE
8
DEVICE
10
15650
20
29220
11
16050
21
29220
0
LINE
8
DEVICE
10
16050
20
29220
11
16050
21
29580
0
LINE
8
DEVICE
10
16050
20
29580
11
15650
21
29580
0
LINE
8
DEVICE
10
15650
20
29580
11
15650
21
29220
0
LINE
8
DEVICE
10
16100
20
29400
11
19230
21
29400
0
CIRCLE
8
DEVICE
10
19290
20
29400
40
60
0
TEXT
8
TEXT
10
16150
20
29580
40
120
1
LAN-3
0
LINE
8
DEVICE
10
15650
20
28320
11
16050
21
28320
0
LINE
8
DEVICE
10
16050
20
28320
11
16050
21
28680
0
LINE
8
DEVICE
10
16050
20
28680
11
15650
21
28680
0
LINE
8
DEVICE
10
15650
20
28680
11
15650
21
28320
0
LINE
8
DEVICE
10
16100
20
28500
11
19230
21
28500
0
CIRCLE
8
DEVICE
10
19290
20
28500
40
60
0
TEXT
8
TEXT
10
16150
20
28680
40
120
1
LAN-3
0
LINE
8
DEVICE
10
15650
20
27420
11
16050
21
27420
0
LINE
8
DEVICE
10
16050
20
27420
11
16050
21
27780
0
LINE
8
DEVICE
10
16050
20
27780
11
15650
21
27780
0
LINE
8
DEVICE
10
15650
20
27780
11
15650
21
27420
0
LINE
8
DEVICE
10
16100
20
27600
11
19230
21
27600
0
CIRCLE
8
DEVICE
10
19290
20
27600
40
60
0
TEXT
8
TEXT
10
16150
20
27780
40
120
1
LAN-3
0
LINE
8
DEVICE
10
20000
20
29180
11
20700
21
29180
0
LINE
8
DEVICE
10
20700
20
29180
11
20700
21
29620
0
LINE
8
DEVICE
10
20700
20
29620
11
20000
21
29620
0
LINE
8
DEVICE
10
20000
20
29620
11
20000
21
29180
0
TEXT
8
TEXT
10
20220
20
29420
40
130
1
ONT
0
LINE
8
DEVICE
10
20700
20
29400
11
25200
21
29400
0
TEXT
8
TEXT
10
19740
20
29540
40
120
1
A-4,1
0
LINE
8
DEVICE
10
20000
20
28280
11
20700
21
28280
0
LINE
8
DEVICE
10
20700
20
28280
11
20700
21
28720
0
LINE
8
DEVICE
10
20700
20
28720
11
20000
21
28720
0
LINE
8
DEVICE
10
20000
20
28720
11
20000
21
28280
0
TEXT
8
TEXT
10
20220
20
28520
40
130
1
ONT
0
LINE
8
DEVICE
10
20700
20
28500
11
25200
21
28500
0
TEXT
8
TEXT
10
19740
20
28640
40
120
1
A-4,2
0
LINE
8
DEVICE
10
20000
20
27380
11
20700
21
27380
0
LINE
8
DEVICE
10
20700
20
27380
11
20700
21
27820
0
LINE
8
DEVICE
10
20700
20
27820
11
20000
21
27820
0
LINE
8
DEVICE
10
20000
20
27820
11
20000
21
27380
0
TEXT
8
TEXT
10
20220
20
27620
40
130
1
ONT
0
LINE
8
DEVICE
10
20700
20
27600
11
25200
21
27600
0
TEXT
8
TEXT
10
19740
20
27740
40
120
1
A-4,3
0
TEXT
8
TEXT
10
25000
20
27700
40
160
1
K-4
0
LINE
8
PANEL
10
14500
20
20200
11
26500
21
20200
0
TEXT
8
TEXT
10
14620
20
22700
40
170
1
5-?
0
LINE
8
DEVICE
10
15650
20
24220
11
16050
21
24220
0
LINE
8
DEVICE
10
16050
20
24220
11
16050
21
24580
0
LINE
8
DEVICE
10
16050
20
24580
11
15650
21
24580
0
LINE
8
DEVICE
10
15650
20
24580
11
15650
21
24220
0
LINE
8
DEVICE
10
16100
20
24400
11
19230
21
24400
0
CIRCLE
8
DEVICE
10
19290
20
24400
40
60
0
TEXT
8
TEXT
10
16150
20
24580
40
120
1
LAN-3
0
LINE
8
DEVICE
10
15650
20
23320
11
16050
21
23320
0
LINE
8
DEVICE
10
16050
20
23320
11
16050
21
23680
0
LINE
8
DEVICE
10
16050
20
23680
11
15650
21
23680
0
LINE
8
DEVICE
10
15650
20
23680
11
15650
21
23320
0
LINE
8
DEVICE
10
16100
20
23500
11
19230
21
23500
0
CIRCLE
8
DEVICE
10
19290
20
23500
40
60
0
TEXT
8
TEXT
10
16150
20
23680
40
120
1
LAN-3
0
LINE
8
DEVICE
10
15650
20
22420
11
16050
21
22420
0
LINE
8
DEVICE
10
16050
20
22420
11
16050
21
22780
0
LINE
8
DEVICE
10
16050
20
22780
11
15650
21
22780
0
LINE
8
DEVICE
10
15650
20
22780
11
15650
21
22420
0
LINE
8
DEVICE
10
16100
20
22600
11
19230
21
22600
0
CIRCLE
8
DEVICE
10
19290
20
22600
40
60
0
TEXT
8
TEXT
10
16150
20
22780
40
120
1
LAN-3
0
LINE
8
DEVICE
10
20000
20
24180
11
20700
21
24180
0
LINE
8
DEVICE
10
20700
20
24180
11
20700
21
24620
0
LINE
8
DEVICE
10
20700
20
24620
11
20000
21
24620
0
LINE
8
DEVICE
10
20000
20
24620
11
20000
21
24180
0
TEXT
8
TEXT
10
20220
20
24420
40
130
1
ONT
0
LINE
8
DEVICE
10
20700
20
24400
11
25200
21
24400
0
TEXT
8
TEXT
10
19740
20
24540
40
120
1
A-5,1
0
LINE
8
DEVICE
10
20000
20
23280
11
20700
21
23280
0
LINE
8
DEVICE
10
20700
20
23280
11
20700
21
23720
0
LINE
8
DEVICE
10
20700
20
23720
11
20000
21
23720
0
LINE
8
DEVICE
10
20000
20
23720
11
20000
21
23280
0
TEXT
8
TEXT
10
20220
20
23520
40
130
1
ONT
0
LINE
8
DEVICE
10
20700
20
23500
11
25200
21
23500
0
TEXT
8
TEXT
10
19740
20
23640
40
120
1
A-5,2
0
LINE
8
DEVICE
10
20000
20
22380
11
20700
21
22380
0
LINE
8
DEVICE
10
20700
20
22380
11
20700
21
22820
0
LINE
8
DEVICE
10
20700
20
22820
11
20000
21
22820
0
LINE
8
DEVICE
10
20000
20
22820
11
20000
21
22380
0
TEXT
8
TEXT
10
20220
20
22620
40
130
1
ONT
0
LINE
8
DEVICE
10
20700
20
22600
11
25200
21
22600
0
TEXT
8
TEXT
10
19740
20
22740
40
120
1
A-5,3
0
TEXT
8
TEXT
10
25000
20
22700
40
160
1
K-5
0
LINE
8
PANEL
10
1300
20
2300
11
8740
21
2300
0
LINE
8
PANEL
10
8740
20
2300
11
8740
21
9000
0
LINE
8
PANEL
10
8740
20
9000
11
1300
21
9000
0
LINE
8
PANEL
10
1300
20
9000
11
1300
21
2300
0
TEXT
8
TEXT
10
1550
20
8500
40
200
1
??????? ??????
0
ENDSEC
0
EOF
